:SAMPLES-PER-SECOND 30
:FRAME-RANGE 1-668
:FULLY-SPECIFIED
:DEGREES
460
root  -39.0492 39.2948 20.4816 -176.663 49.6144 178.682
RightUpLeg  -10.8766 -6.28531 0.798868
RightLeg  20.3233 -1.7663 -0.847231
RightFoot  -12.7869 -0.0841409 0.405616
RightToes  5.38607e-012 1.2921e-014 -6.02303e-014
Spine  -5.00653 -2.98439 2.26905
Spine1  7.58236 -3.82853 2.65607
HEad  16.8157 17.7957 -0.688287
LeftShoulder1  1.74112 -3.88665 -17.8498
LeftArm  8.34853 -19.2595 -44.4341
LeftForeArm  30.3732 -44.309 -8.83381
LeftHand  -0.0716892 4.77877 10.6345
RightShoulder  1.52372 1.50483 25.6014
RightArm  8.419 5.57245 52.8591
RightForeArm  32.702 19.7176 5.34698
RightHand  -0.126876 -4.27545 -11.7168
LeftUpLeg  -19.2138 1.21108 0.000911816
LeftLeg  33.2972 15.9923 11.3573
LeftFoot  -11.3024 0.0697161 -5.98876
LeftToes  -6.11857e-011 5.00151e-011 -2.22593e-011
461
root  -38.8086 39.3495 20.22 -177.013 51.8325 178.009
RightUpLeg  -10.1969 -5.18343 0.123199
RightLeg  19.4053 -0.626754 -0.320491
RightFoot  -12.9298 -0.0823017 0.377048
RightToes  5.38607e-012 1.2921e-014 -6.02303e-014
Spine  -4.6969 -2.72087 2.58779
Spine1  7.55245 -3.51988 2.26872
HEad  17.1064 19.4896 -1.17804
LeftShoulder1  1.6973 -3.65166 -18.0525
LeftArm  6.38821 -18.325 -43.7248
LeftForeArm  26.0933 -45.3346 -9.49532
LeftHand  -0.116638 4.19883 9.99826
RightShoulder  1.57065 1.70845 25.2418
RightArm  11.9745 6.4034 53.4055
RightForeArm  26.1548 24.1236 3.78647
RightHand  -0.163834 -3.66621 -10.1503
LeftUpLeg  -20.8676 -2.82814 -0.579308
LeftLeg  29.5804 14.3786 8.99828
LeftFoot  -9.89879 0.139969 -6.4058
LeftToes  -6.11857e-011 5.00151e-011 -2.22593e-011
462
root  -38.5341 39.3742 19.9448 -177.252 53.9023 177.571
RightUpLeg  -9.56264 -3.6745 -0.281555
RightLeg  18.7862 0.0521092 -0.149432
RightFoot  -13.1779 -0.0840905 0.318819
RightToes  5.38607e-012 1.2921e-014 -6.02303e-014
Spine  -4.40583 -2.48456 2.91687
Spine1  7.3715 -3.21438 1.78294
HEad  17.5323 20.8876 -1.5618
LeftShoulder1  1.67205 -3.42158 -18.5481
LeftArm  4.14156 -16.8731 -42.6584
LeftForeArm  27.092 -47.8949 -10.4046
LeftHand  -0.0814153 4.59534 9.55647
RightShoulder  1.65611 2.0122 25.0618
RightArm  10.6565 7.44414 53.7967
RightForeArm  25.7826 27.5534 4.54467
RightHand  -0.177052 -3.18839 -8.70374
LeftUpLeg  -22.2128 -5.712 -0.424638
LeftLeg  25.543 12.404 6.7099
LeftFoot  -8.04672 0.222263 -6.04901
LeftToes  -6.11857e-011 5.00151e-011 -2.22593e-011
463
root  -38.2248 39.4094 19.6281 -177.282 56.0346 177.428
RightUpLeg  -8.74301 -3.65205 -0.644656
RightLeg  17.9718 2.06531 0.557281
RightFoot  -13.2602 -0.0893554 0.0231717
RightToes  5.38607e-012 1.2921e-014 -6.02303e-014
Spine  -4.37426 -2.17396 3.34171
Spine1  7.36837 -2.82612 1.26082
HEad  17.9024 21.8785 -1.73928
LeftShoulder1  1.60101 -3.06807 -18.8316
LeftArm  2.00691 -15.2253 -41.9063
LeftForeArm  25.6833 -50.8889 -11.8095
LeftHand  -0.0857728 4.51272 9.23837
RightShoulder  1.68972 2.12868 25.0144
RightArm  10.5592 8.70459 54.3023
RightForeArm  26.3067 30.3303 5.14988
RightHand  -0.167785 -3.21607 -8.30117
LeftUpLeg  -23.1846 -9.35096 0.699174
LeftLeg  21.1194 10.3575 4.70649
LeftFoot  -4.27033 0.418295 -6.35238
LeftToes  -6.11857e-011 5.00151e-011 -2.22593e-011
464
root  -37.8687 39.4169 19.2792 -177.334 58.0434 177.349
RightUpLeg  -7.90779 -3.96424 -1.03372
RightLeg  17.5 4.2966 1.3168
RightFoot  -13.5682 -0.0988307 -0.361386
RightToes  5.38607e-012 1.2921e-014 -6.02303e-014
Spine  -4.61229 -1.85245 3.46494
Spine1  7.54683 -2.4861 1.05865
HEad  18.6529 22.4245 -1.40353
LeftShoulder1  1.526 -2.73469 -18.9862
LeftArm  0.350305 -13.7816 -41.2435
LeftForeArm  24.7586 -53.6164 -13.2484
LeftHand  -0.089008 4.45273 9.05771
RightShoulder  1.73699 2.28314 25.0057
RightArm  10.6174 9.89123 54.917
RightForeArm  27.2892 31.8872 5.46605
RightHand  -0.166273 -3.23694 -8.29506
LeftUpLeg  -23.8319 -12.6488 2.26201
LeftLeg  16.9417 7.04951 2.73596
LeftFoot  -1.0278 0.587931 -6.44333
LeftToes  -6.11857e-011 5.00151e-011 -2.22593e-011
465
root  -37.4791 39.4344 18.9217 -177.389 59.7648 177.396
RightUpLeg  -6.65074 -3.42452 -1.24076
RightLeg  16.5581 5.49477 1.48031
RightFoot  -13.8358 -0.0996919 -0.279045
RightToes  5.38607e-012 1.2921e-014 -6.02303e-014
Spine  -4.8579 -1.60879 3.44628
Spine1  7.68181 -2.19346 0.826311
HEad  19.4793 22.6129 -0.719299
LeftShoulder1  1.45835 -2.45998 -19.0176
LeftArm  -0.587059 -12.7191 -40.4588
LeftForeArm  28.8933 -56.382 -14.4617
LeftHand  -0.0395182 5.12345 9.16357
RightShoulder  1.82854 2.56927 25.0621
RightArm  10.3911 10.6235 55.2495
RightForeArm  27.4971 32.6668 5.64477
RightHand  -0.165671 -3.25176 -8.3171
LeftUpLeg  -23.9372 -13.6877 2.95096
LeftLeg  13.7635 3.09166 2.02155
LeftFoot  0.190232 0.748983 -7.42361
LeftToes  -6.11857e-011 5.00151e-011 -2.22593e-011
466
root  -37.0286 39.4017 18.5108 -177.692 60.8795 177.494
RightUpLeg  -5.02672 -3.40036 -1.47112
RightLeg  15.956 6.50974 1.54706
RightFoot  -14.4973 -0.10124 -0.114289
RightToes  5.38607e-012 1.2921e-014 -6.02303e-014
Spine  -5.24887 -1.59058 3.27349
Spine1  8.05294 -2.15437 0.774124
HEad  20.33 22.7072 0.0596459
LeftShoulder1  1.38548 -2.18883 -18.9323
LeftArm  -0.730291 -12.0123 -39.4003
LeftForeArm  32.5377 -58.5294 -15.5077
LeftHand  -0.0157224 5.443 9.05721
RightShoulder  1.80465 2.47314 25.1688
RightArm  10.2157 11.091 56.0023
RightForeArm  27.6024 32.4816 5.59322
RightHand  -0.172975 -3.17526 -8.43348
LeftUpLeg  -23.4216 -13.2296 2.74658
LeftLeg  12.3601 0.543448 1.82015
LeftFoot  -1.03366 0.622715 -6.83138
LeftToes  -6.11857e-011 5.00151e-011 -2.22593e-011
467
root  -36.5417 39.3087 18.0445 -177.958 61.3893 177.81
RightUpLeg  -3.4023 -3.51388 -1.72395
RightLeg  16.0622 7.23404 1.67414
RightFoot  -15.5867 -0.104389 0.0288121
RightToes  5.38607e-012 1.2921e-014 -6.02303e-014
Spine  -5.56753 -1.66996 3.1803
Spine1  8.15325 -2.21196 0.779727
HEad  21.1355 22.5145 0.773383
LeftShoulder1  1.34939 -2.042 -18.9505
LeftArm  -0.303305 -11.3423 -38.5539
LeftForeArm  32.9658 -59.781 -16.3658
LeftHand  -0.0234676 5.34372 8.47067
RightShoulder  1.77216 2.34018 25.3327
RightArm  9.97714 10.8737 56.1175
RightForeArm  27.8087 32.0306 5.47147
RightHand  -0.174021 -3.22871 -8.6938
LeftUpLeg  -22.4598 -12.3594 2.20005
LeftLeg  12.2132 1.48747 1.94774
LeftFoot  -2.43115 0.583427 -7.29552
LeftToes  -6.11857e-011 5.00151e-011 -2.22593e-011
468
root  -36.0192 39.2458 17.5584 -178.284 61.5653 178.12
RightUpLeg  -1.39099 -2.82468 -1.82078
RightLeg  15.6507 6.79185 1.36323
RightFoot  -16.4797 -0.0974047 0.314256
RightToes  5.38607e-012 1.2921e-014 -6.02303e-014
Spine  -6.27824 -1.81753 2.76713
Spine1  8.74555 -2.29272 0.642326
HEad  21.9525 22.1993 1.3743
LeftShoulder1  1.3085 -1.90556 -18.8161
LeftArm  0.243 -10.5966 -38.2375
LeftForeArm  31.3452 -60.2522 -16.9002
LeftHand  -0.0406402 5.07644 7.73685
RightShoulder  1.78507 2.39324 25.2654
RightArm  9.68626 10.04 55.7538
RightForeArm  28.0652 31.4337 5.31322
RightHand  -0.171768 -3.36187 -9.11723
LeftUpLeg  -21.3843 -12.0394 1.65512
LeftLeg  13.2361 2.66516 2.10982
LeftFoot  -1.91227 0.560461 -6.65309
LeftToes  -6.11857e-011 5.00151e-011 -2.22593e-011
469
root  -35.4782 39.1043 17.059 -179.08 61.4914 177.942
RightUpLeg  0.200524 -1.18528 -1.97007
RightLeg  16.3548 5.26561 0.920464
RightFoot  -17.9681 -0.0668227 0.946241
RightToes  5.38607e-012 1.2921e-014 -6.02303e-014
Spine  -6.7462 -1.99595 1.795
Spine1  8.98377 -2.47384 0.89346
HEad  22.4512 22.0126 2.04187
LeftShoulder1  1.2665 -1.75267 -18.7384
LeftArm  0.988682 -9.69545 -38.0875
LeftForeArm  30.8425 -60.1627 -16.8843
LeftHand  -0.0669571 4.60588 7.21563
RightShoulder  1.70907 2.06412 25.7838
RightArm  10.2265 9.25385 55.0232
RightForeArm  27.6455 30.2694 5.06141
RightHand  -0.163767 -3.51576 -9.33861
LeftUpLeg  -20.852 -13.3436 1.34277
LeftLeg  15.012 3.4956 1.92642
LeftFoot  0.364321 0.5249 -5.14137
LeftToes  -6.11857e-011 5.00151e-011 -2.22593e-011
